<?xml version="1.0" standalone="no"?>
<!DOCTYPE svg PUBLIC "-//W3C//DTD SVG 1.1//EN" "http://www.w3.org/Graphics/SVG/1.1/DTD/svg11.dtd">
<svg t="1745738407777" class="icon" viewBox="0 0 24 24" version="1.1" xmlns="http://www.w3.org/2000/svg"  p-id="2379" ne="0.057698892254675394" xmlns:xlink="http://www.w3.org/1999/xlink"  width="24" height="24">
  <path d="M11.88235294 24.84941176C4.90423529 24.84941176 -0.79529412 19.08741176 -0.79529412 11.88235294S4.90423529 -0.79529412 11.88235294 -0.79529412s12.79066667 5.74190588 12.79066667 12.79066667 -5.74190588 12.79066667 -12.79066667 12.79066667z m6.45917647 -14.22941176l-7.24576471 0.00035294c-0.34905882 0 -0.63465882 0.28366588 -0.63465882 0.63465882l-0.00069882 1.58405882c0 0.34905882 0.28366588 0.63465882 0.63465882 0.63465882H15.62400000c0.34905882 0 0.63465882 0.28366588 0.63465882 0.63465882v0.31625882a1.89925882 1.89925882 0 0 1 -1.89925882 1.89925882H8.39065882a0.63465882 0.63465882 0 0 1 -0.63465882 -0.63465882v-6.00505882a1.89925882 1.89925882 0 0 1 1.89925882 -1.89915882l8.84745882 -0.00037647c0.34905882 0 0.63465882 -0.28366588 0.63465882 -0.63465882l0.00178235 -1.58312941c0 -0.34905882 -0.28366588 -0.63465882 -0.63465882 -0.63465882l-8.84920000 0.00035294c-2.62235294 -0.00035294 -4.74745882 2.12212941 -4.74745882 4.74745882v8.84729412c0 0.34905882 0.28366588 0.63465882 0.63465882 0.63465882h9.30952941c2.36658824 0 4.27138824 -1.91758824 4.27138824 -4.27138824v-3.63938824c0 -0.34899882 -0.28366588 -0.63465882 -0.63465882 -0.63465882z" p-id="2380"></path>
</svg>
